<?xml version="1.0" encoding="UTF-8"?>
<svg id="Capa_1" data-name="Capa 1" xmlns="http://www.w3.org/2000/svg" viewBox="0 0 512 512">
  <defs>
    <style>
      .cls-1 {
        letter-spacing: -.01em;
      }

      .cls-2 {
        fill: #0d0f15;
      }

      .cls-2, .cls-3 {
        stroke-width: 0px;
      }

      .cls-4 {
        font-family: Sitka-SmallBold, Sitka;
        font-size: 114.16px;
        font-variation-settings: 'opsz' 6, 'wght' 700;
        font-weight: 700;
      }

      .cls-4, .cls-3 {
        fill: #428ecc;
      }
    </style>
  </defs>
  <rect class="cls-2" width="512" height="512"/>
  <g>
    <path class="cls-3" d="M325.92,231.84c-18.75-17.2-43.73-27.71-71.18-27.71s-52.65,10.6-71.43,27.94c-43.44,3.56-86.87,7.12-130.31,10.69v6.9h145.97c14.71-13.85,34.52-22.36,56.32-22.36s41.61,8.5,56.32,22.36h147.38v-6.9c-44.36-3.64-88.72-7.28-133.08-10.91Z"/>
    <path class="cls-3" d="M325.92,387.17c-18.75,17.2-43.73,27.71-71.18,27.71-27.57,0-52.65-10.6-71.43-27.94-43.44-3.56-86.87-7.12-130.31-10.69v-6.9h115.03s30.95,0,30.95,0c14.71,13.85,34.52,22.36,56.32,22.36,21.8,0,41.61-8.5,56.32-22.36h1.41s28.42,0,28.42,0h117.55c0,2.3,0,4.6,0,6.9-44.36,3.64-88.72,7.28-133.08,10.91Z"/>
    <polygon class="cls-3" points="169.9 210.97 171.69 216.49 177.49 216.49 172.8 219.9 174.59 225.42 169.9 222.01 165.2 225.42 167 219.9 162.3 216.49 168.1 216.49 169.9 210.97"/>
    <polygon class="cls-3" points="192.54 194.69 194.33 200.21 200.13 200.21 195.44 203.62 197.23 209.14 192.54 205.73 187.85 209.14 189.64 203.62 184.95 200.21 190.75 200.21 192.54 194.69"/>
    <polygon class="cls-3" points="220.1 183.44 221.89 188.96 227.7 188.96 223 192.37 224.79 197.89 220.1 194.48 215.41 197.89 217.2 192.37 212.51 188.96 218.31 188.96 220.1 183.44"/>
    <polygon class="cls-3" points="253.19 176.22 254.98 181.74 260.78 181.74 256.09 185.15 257.88 190.67 253.19 187.26 248.5 190.67 250.29 185.15 245.59 181.74 251.4 181.74 253.19 176.22"/>
    <polygon class="cls-3" points="289.35 183.44 291.15 188.96 296.95 188.96 292.25 192.37 294.05 197.89 289.35 194.48 284.66 197.89 286.45 192.37 281.76 188.96 287.56 188.96 289.35 183.44"/>
    <polygon class="cls-3" points="317.75 194.69 319.54 200.21 325.34 200.21 320.65 203.62 322.44 209.14 317.75 205.73 313.05 209.14 314.85 203.62 310.15 200.21 315.95 200.21 317.75 194.69"/>
    <polygon class="cls-3" points="335.05 210.97 336.85 216.49 342.65 216.49 337.96 219.9 339.75 225.42 335.05 222.01 330.36 225.42 332.15 219.9 327.46 216.49 333.26 216.49 335.05 210.97"/>
    <path class="cls-3" d="M263.33,465.12c.55-.02,1.1-.05,1.64-.08,53.56-2.7,99.89-30.73,125.41-71.48-5.79-1.37-15.79-2.97-27.9-.85-13.41,2.34-22.98,8.1-27.99,11.63-6.96,6.11-35.18,29.42-78.03,29.81-42.86-.4-71.07-23.71-78.03-29.81-5-3.53-14.58-9.29-27.99-11.63-12.11-2.11-22.11-.52-27.9.85,25.52,40.75,71.85,68.78,125.41,71.48.55.03,1.1.05,1.64.08.76.03,1.52.06,2.28.08,1.51.04,3.04.07,4.58.07h0c1.54,0,3.06-.03,4.58-.07.76-.02,1.52-.05,2.28-.08Z"/>
    <path class="cls-3" d="M364.27,191.19h.78v-19.84c12.43-13.37,20.06-31.27,20.06-50.97,0-36.73-26.44-67.26-61.31-73.65h-136.94c-34.91,6.37-61.39,36.9-61.39,73.65,0,19.84,7.74,37.85,20.33,51.25v19.56h.51c-10.41,10.53-18.89,22.59-24.94,35.74h10.33c25.44-36.35,71.02-60.58,123.03-60.58s97.59,24.23,123.04,60.58h11.44c-6.05-13.15-14.53-25.21-24.94-35.74ZM335.05,120.38c0,14.87-12.17,27.04-27.04,27.04h-106.55c-14.87,0-27.04-12.17-27.04-27.04h0c0-14.87,12.17-27.04,27.04-27.04h106.55c14.87,0,27.04,12.17,27.04,27.04h0Z"/>
    <text class="cls-4" transform="translate(128.33 346.17)"><tspan x="0" y="0">B</tspan><tspan class="cls-1" x="82.4" y="0">O</tspan><tspan x="168.86" y="0">X</tspan></text>
  </g>
</svg>